<svg width="108" height="22" viewBox="0 0 108 22" fill="none" xmlns="http://www.w3.org/2000/svg">
<path d="M18.2152 21.8113L15.8989 19.5047C15.0829 20.1644 14.1626 20.6834 13.1759 21.0403C12.1551 21.4104 11.0767 21.5966 9.99088 21.5901C8.65466 21.5989 7.33214 21.3204 6.11294 20.7735C4.91429 20.2398 3.83131 19.4773 2.92471 18.5287C1.99989 17.5598 1.26985 16.4222 0.774279 15.1778C-0.258093 12.5572 -0.258093 9.64247 0.774279 7.0218C1.2722 5.77862 2.00197 4.64146 2.92471 3.6709C3.82685 2.71039 4.90903 1.93661 6.10969 1.39359C7.33108 0.855206 8.65122 0.577148 9.986 0.577148C11.3208 0.577148 12.6409 0.855206 13.8623 1.39359C15.0586 1.93931 16.137 2.71282 17.0375 3.6709C18.3608 5.09113 19.2808 6.83901 19.7023 8.73388C20.1239 10.6287 20.0316 12.6018 19.4352 14.4491C19.0922 15.4812 18.6024 16.4585 17.981 17.351L20.3396 19.6967L18.2152 21.8113ZM9.99088 18.584C10.6637 18.5864 11.3323 18.4765 11.9689 18.2587C12.5984 18.0444 13.1877 17.7267 13.7127 17.3185L11.4679 15.09L13.5955 12.9461L15.7395 15.103C16.144 14.5244 16.4517 13.8838 16.6504 13.2063C16.8534 12.5209 16.9564 11.8098 16.9562 11.0949C16.9729 9.13378 16.2397 7.24031 14.9066 5.80181C14.2793 5.11963 13.5244 4.567 12.6846 4.17516C11.8378 3.78515 10.9166 3.5832 9.98438 3.5832C9.05211 3.5832 8.1309 3.78515 7.28413 4.17516C6.44591 4.56971 5.69151 5.12198 5.06213 5.80181C3.73353 7.23791 3.0008 9.12554 3.01254 11.0819C3.00662 12.0772 3.19103 13.0644 3.55585 13.9904C3.904 14.8771 4.41736 15.6896 5.06863 16.3848C5.69748 17.068 6.45473 17.6208 7.29715 18.0114C8.14253 18.3965 9.06195 18.592 9.99088 18.584Z" fill="white"/>
<path d="M30.9845 21.6649C29.4878 21.7001 28.0148 21.2866 26.7552 20.4774C25.5525 19.6856 24.5867 18.5827 23.9606 17.286C23.2885 15.8997 22.9488 14.3759 22.9683 12.8354V1.02271H25.9809V12.8354C25.9671 13.8418 26.1667 14.8397 26.5665 15.7634C26.9281 16.6134 27.5196 17.3457 28.2745 17.8781C29.0924 18.3946 30.0399 18.6688 31.0072 18.6688C31.9746 18.6688 32.9221 18.3946 33.74 17.8781C34.4891 17.3453 35.0731 16.6125 35.4252 15.7634C35.8177 14.8379 36.0127 13.8406 35.9978 12.8354V1.02271H39.0104V12.8354C39.0197 14.0056 38.8282 15.1687 38.4443 16.2742C38.0862 17.3072 37.5341 18.2624 36.8176 19.0883C36.1187 19.895 35.2544 20.5418 34.2833 20.985C33.2468 21.4504 32.1206 21.6825 30.9845 21.6649Z" fill="white"/>
<path d="M42.615 21.2908V1.02271H45.6276V21.2908H42.615Z" fill="white"/>
<path d="M48.6726 21.2908V18.2782L61.0091 4.03201H48.6726V1.02271H65.0627V4.03201L52.7262 18.2782H65.0627V21.2908H48.6726Z" fill="white"/>
<path d="M66.5105 8.58012L67.4084 1.02271H70.4177L68.508 8.58012H66.5105Z" fill="white"/>
<path d="M86.9217 21.2908H83.0177L76.9796 12.9363L75.7498 14.4263V21.2908H72.7373V1.02272H75.7498V9.74482L83.047 1.0162H86.9835L78.9609 10.5907L86.9217 21.2908Z" fill="white"/>
<path d="M97.0069 22C96.9954 20.5113 97.3938 19.048 98.1586 17.7707C98.9222 16.4864 100.019 15.433 101.334 14.7224C102.288 14.2319 103.073 13.4671 103.588 12.5264C104.133 11.5482 104.414 10.4448 104.402 9.32515C104.416 8.24608 104.131 7.18408 103.579 6.25729C103.038 5.35204 102.277 4.5987 101.366 4.0678C100.435 3.53478 99.3811 3.25437 98.3083 3.25437C97.2354 3.25437 96.1812 3.53478 95.2502 4.0678C94.341 4.59642 93.5836 5.35053 93.0509 6.25729C92.504 7.18613 92.2227 8.24734 92.2376 9.32515H88.9843C88.9662 7.67395 89.4005 6.0493 90.2401 4.62738C91.0619 3.23284 92.2266 2.07152 93.6235 1.2537C95.0535 0.432276 96.6738 0 98.3229 0C99.972 0 101.592 0.432276 103.022 1.2537C104.42 2.0706 105.585 3.23212 106.406 4.62738C107.247 6.04871 107.681 7.67376 107.662 9.32515C107.674 11.0263 107.231 12.6997 106.38 14.1726C105.556 15.6245 104.339 16.8143 102.869 17.6048C102.079 18.0225 101.418 18.6493 100.96 19.4169C100.494 20.1973 100.253 21.0912 100.264 22H97.0069Z" fill="white"/>
<path d="M91.3137 15.861C91.07 15.862 90.8287 15.8128 90.6048 15.7166C90.381 15.6203 90.1793 15.479 90.0124 15.3015C89.7522 15.0347 89.5732 14.6995 89.496 14.335C89.4188 13.9704 89.4467 13.5914 89.5764 13.2421C89.7925 12.8006 90.1641 12.4544 90.6199 12.27C91.0756 12.0857 91.5834 12.0762 92.0457 12.2433C92.807 12.6598 93.1876 13.2367 93.1876 13.9741C93.1908 14.2208 93.144 14.4655 93.05 14.6937C92.9561 14.9218 92.817 15.1285 92.641 15.3015C92.4709 15.4819 92.265 15.6249 92.0364 15.7213C91.8078 15.8176 91.5617 15.8652 91.3137 15.861Z" fill="white"/>
</svg>
