<svg width="143" height="30" viewBox="0 0 143 30" fill="none" xmlns="http://www.w3.org/2000/svg">
<path d="M24.194 28.9704L21.1174 25.9067C20.0336 26.783 18.8112 27.4723 17.5006 27.9463C16.1447 28.438 14.7124 28.6852 13.2702 28.6766C11.4954 28.6883 9.73876 28.3184 8.11938 27.592C6.5273 26.883 5.08885 25.8703 3.88468 24.6104C2.65631 23.3234 1.68665 21.8125 1.02842 20.1596C-0.342807 16.6788 -0.342807 12.8074 1.02842 9.32654C1.68978 7.67532 2.65908 6.16491 3.88468 4.87579C5.08293 3.6 6.52032 2.57225 8.11507 1.85099C9.73735 1.13589 11.4908 0.766571 13.2637 0.766571C15.0366 0.766571 16.79 1.13589 18.4123 1.85099C20.0012 2.57583 21.4337 3.60323 22.6297 4.87579C24.3874 6.76217 25.6093 9.08376 26.1692 11.6006C26.7291 14.1174 26.6066 16.7381 25.8144 19.1917C25.3588 20.5625 24.7083 21.8606 23.8829 23.0461L27.0157 26.1617L24.194 28.9704ZM13.2702 24.6838C14.1639 24.687 15.0518 24.541 15.8974 24.2517C16.7335 23.9671 17.5163 23.5451 18.2136 23.0029L15.232 20.0429L18.058 17.1953L20.9056 20.0602C21.4429 19.2917 21.8516 18.4408 22.1155 17.541C22.3851 16.6306 22.5219 15.6861 22.5217 14.7366C22.5439 12.1317 21.5701 9.61678 19.7994 7.70612C18.9662 6.80002 17.9636 6.066 16.8481 5.54556C15.7234 5.02753 14.4998 4.75929 13.2615 4.75929C12.0233 4.75929 10.7997 5.02753 9.67499 5.54556C8.56164 6.06961 7.55962 6.80315 6.72367 7.70612C4.95898 9.61359 3.98575 12.1208 4.00135 14.7193C3.99348 16.0412 4.23842 17.3525 4.72298 18.5824C5.18541 19.7601 5.86726 20.8394 6.7323 21.7627C7.56756 22.6703 8.57336 23.4044 9.69228 23.9233C10.8151 24.4348 12.0363 24.6944 13.2702 24.6838Z" fill="#40337A"/>
<path d="M41.1544 28.776C39.1665 28.8228 37.21 28.2734 35.537 27.1987C33.9395 26.147 32.6568 24.6821 31.8251 22.9597C30.9324 21.1185 30.4812 19.0945 30.5072 17.0484V1.3584H34.5085V17.0484C34.4902 18.3851 34.7553 19.7106 35.2863 20.9374C35.7667 22.0664 36.5523 23.039 37.5549 23.7462C38.6413 24.4323 39.8998 24.7965 41.1847 24.7965C42.4696 24.7965 43.7281 24.4323 44.8144 23.7462C45.8094 23.0386 46.5851 22.0652 47.0528 20.9374C47.5741 19.7081 47.8331 18.3835 47.8133 17.0484V1.3584H51.8147V17.0484C51.827 18.6027 51.5727 20.1476 51.0628 21.6159C50.5872 22.988 49.8538 24.2566 48.9022 25.3536C47.9739 26.4251 46.8258 27.2843 45.5361 27.8728C44.1593 28.4911 42.6635 28.7994 41.1544 28.776Z" fill="#40337A"/>
<path d="M56.6025 28.279V1.3584H60.6038V28.279H56.6025Z" fill="#40337A"/>
<path d="M64.6484 28.279V24.2777L81.0341 5.35544H64.6484V1.3584H86.4182V5.35544L70.0325 24.2777H86.4182V28.279H64.6484Z" fill="#40337A"/>
<path d="M88.3412 11.3964L89.5338 1.3584H93.5309L90.9944 11.3964H88.3412Z" fill="#40337A"/>
<path d="M115.452 28.279H110.267L102.247 17.1824L100.613 19.1615V28.279H96.6118V1.35841H100.613V12.9434L110.305 1.34976H115.534L104.878 14.0668L115.452 28.279Z" fill="#40337A"/>
<path d="M128.847 29.221C128.832 27.2436 129.361 25.3002 130.377 23.6036C131.391 21.8977 132.849 20.4985 134.595 19.5547C135.862 18.9032 136.904 17.8874 137.589 16.6379C138.313 15.3387 138.685 13.8731 138.669 12.3859C138.689 10.9527 138.31 9.5421 137.576 8.31111C136.858 7.10874 135.847 6.10812 134.638 5.40297C133.401 4.695 132.001 4.32255 130.576 4.32255C129.151 4.32255 127.751 4.695 126.514 5.40297C125.306 6.10509 124.3 7.10673 123.593 8.31111C122.866 9.54482 122.493 10.9544 122.513 12.3859H118.192C118.167 10.1928 118.744 8.03485 119.859 6.14622C120.951 4.29395 122.498 2.75146 124.353 1.66521C126.253 0.574162 128.405 0 130.595 0C132.786 0 134.938 0.574162 136.837 1.66521C138.694 2.75023 140.241 4.293 141.331 6.14622C142.448 8.03407 143.025 10.1925 142.999 12.3859C143.015 14.6454 142.427 16.8681 141.297 18.8244C140.203 20.7529 138.587 22.3332 136.634 23.3832C135.584 23.938 134.707 24.7705 134.098 25.7901C133.479 26.8266 133.159 28.014 133.173 29.221H128.847Z" fill="#40337A"/>
<path d="M121.285 21.067C120.962 21.0683 120.641 21.003 120.344 20.8752C120.046 20.7473 119.779 20.5596 119.557 20.3238C119.211 19.9695 118.974 19.5243 118.871 19.0401C118.769 18.5559 118.806 18.0525 118.978 17.5885C119.265 17.0021 119.758 16.5423 120.364 16.2974C120.969 16.0526 121.644 16.04 122.258 16.2619C123.269 16.8151 123.774 17.5813 123.774 18.5608C123.779 18.8884 123.716 19.2135 123.592 19.5165C123.467 19.8195 123.282 20.0941 123.048 20.3238C122.822 20.5635 122.549 20.7534 122.245 20.8814C121.942 21.0094 121.615 21.0726 121.285 21.067Z" fill="#40337A"/>
</svg>
